<?xml version="1.0" standalone="no"?>
<!DOCTYPE svg PUBLIC "-//W3C//DTD SVG 20010904//EN"
 "http://www.w3.org/TR/2001/REC-SVG-20010904/DTD/svg10.dtd">
<svg version="1.0" xmlns="http://www.w3.org/2000/svg"
 width="157.000000pt" height="48.000000pt" viewBox="0 0 157.000000 48.000000"
 preserveAspectRatio="xMidYMid meet">

<g transform="translate(0.000000,48.000000) scale(0.100000,-0.100000)"
fill="#000000" stroke="none">
<path d="M128 379 c-16 -9 -18 -26 -18 -133 0 -94 3 -126 14 -135 9 -7 42 -11
88 -9 l73 3 3 129 c2 86 -1 133 -9 142 -14 17 -125 19 -151 3z m140 -121 l-3
-93 -65 0 -65 0 -3 79 c-2 44 -1 85 2 93 4 9 25 13 71 13 l66 0 -3 -92z m-48
-128 c0 -5 -6 -10 -14 -10 -8 0 -18 5 -21 10 -3 6 3 10 14 10 12 0 21 -4 21
-10z"/>
<path d="M1273 365 c-13 -9 -23 -25 -23 -35 0 -10 -8 -24 -17 -29 -13 -8 -15
-13 -6 -19 7 -4 13 -36 15 -72 3 -59 5 -65 26 -68 21 -3 22 0 22 67 0 64 2 71
20 71 11 0 20 5 20 10 0 6 -9 10 -20 10 -14 0 -20 7 -20 24 0 30 27 41 50 21
16 -14 18 -14 24 1 8 21 6 24 -35 30 -22 3 -42 0 -56 -11z"/>
<path d="M1153 344 c-8 -21 13 -42 28 -27 13 13 5 43 -11 43 -6 0 -13 -7 -17
-16z"/>
<path d="M580 245 c0 -98 1 -105 20 -105 17 0 20 7 20 39 0 61 18 103 44 99
18 -3 21 -11 24 -52 2 -26 -1 -61 -7 -77 -13 -37 3 -47 25 -15 25 39 35 97 23
128 -13 32 -38 42 -79 33 -28 -6 -30 -5 -30 24 0 24 -4 31 -20 31 -19 0 -20
-7 -20 -105z"/>
<path d="M385 328 c-3 -8 -5 -53 -3 -99 3 -78 5 -84 25 -87 19 -3 22 2 25 35
3 37 4 38 51 44 52 5 67 19 67 60 0 38 -21 51 -95 56 -51 5 -66 3 -70 -9z
m105 -22 c26 -32 -7 -87 -44 -73 -16 6 -23 66 -9 80 11 12 40 8 53 -7z"/>
<path d="M785 275 c-50 -49 -15 -135 55 -135 35 0 90 46 90 75 0 73 -93 112
-145 60z m89 -11 c10 -26 7 -79 -6 -92 -18 -18 -46 -14 -58 7 -23 44 -4 101
34 101 13 0 27 -7 30 -16z"/>
<path d="M960 222 c0 -75 2 -82 20 -82 17 0 20 7 20 44 0 59 15 96 39 96 31 0
41 -59 22 -127 -6 -19 -6 -35 -1 -38 15 -9 50 71 50 113 0 62 -49 92 -96 58
-17 -13 -21 -12 -36 1 -17 15 -18 12 -18 -65z"/>
<path d="M1150 220 c0 -73 2 -80 20 -80 18 0 20 7 20 80 0 73 -2 80 -20 80
-18 0 -20 -7 -20 -80z"/>
<path d="M1350 295 c0 -3 14 -38 31 -78 29 -69 30 -80 14 -119 -4 -10 -3 -18
3 -18 11 0 92 179 92 204 0 33 -19 14 -35 -35 -9 -28 -19 -48 -21 -46 -3 3
-15 24 -27 48 -12 24 -30 45 -39 47 -10 2 -18 1 -18 -3z"/>
</g>
</svg>
